<svg width="124" height="15" viewBox="0 0 124 15" fill="none" xmlns="http://www.w3.org/2000/svg">
<path d="M0.0603638 0.529877H13.3516V2.35675H2.77022V6.36572H13.3516V8.19258H2.77022V14.2314H0.0603638V0.529877ZM29.4172 9.66424C29.4172 12.7598 27.288 14.4851 23.0942 14.4851H21.3521C17.0292 14.4851 15.0291 12.709 15.0291 9.66424V7.8881C15.0291 4.84332 16.9647 3.0672 21.3521 3.0672H23.0942C27.2235 3.0672 29.4172 4.84332 29.4172 7.8881V9.66424ZM23.4813 4.79258H21.094C18.7068 4.79258 17.8035 5.65527 17.8035 7.63438V9.96871C17.8035 11.9478 18.7068 12.8105 21.094 12.8105H23.5458C26.0621 12.8105 26.8364 11.9478 26.8364 9.96871V7.63438C26.7718 5.60452 25.9976 4.74184 23.4813 4.79258ZM36.2563 3.27018H40.063V4.99557H36.1273C34.6433 4.99557 34.0626 5.35079 34.0626 6.46721V14.2314H31.4818V6.6702C31.5463 4.43735 33.5465 3.27018 36.2563 3.27018ZM42.3858 3.27018H58.5159C62 3.27018 63.5485 4.79258 63.5485 6.97467V14.2314H60.9677V6.87319C60.9677 5.50303 60.3225 5.09706 58.6449 5.09706H54.2575V14.2314H51.6767V5.09706H44.9666V14.2314H42.3858V3.27018ZM79.0334 14.2314H71.1619C67.6778 14.2314 66.1293 12.8613 66.1293 10.3239V3.27018H68.7101V10.5269C68.7101 11.9478 69.3553 12.4045 71.0329 12.4045H76.5171V3.27018H79.0979L79.0334 14.2314ZM84.3886 0.529877V14.2314H81.8078V0.529877H84.3886ZM99.8735 14.2314H90.9052C88.2598 14.2314 86.6468 13.4195 86.6468 11.5926C86.6468 10.4254 87.8082 9.56274 89.7438 8.44632L95.9378 4.94482H87.4211V3.21944H94.5828C98.1315 3.21944 99.8735 4.74183 99.8735 7.17767V14.2314ZM97.2927 12.4045V6.41646L90.7116 10.1717C89.8083 10.6792 89.2922 10.9329 89.2922 11.5419C89.2922 12.1508 89.9374 12.4045 90.7761 12.4045H97.2927ZM105.487 12.4045H110.777V2.9657C110.777 2.55974 110.519 2.35675 110.068 2.35675H106.003V0.529877H110.455C112.52 0.529877 113.423 1.34182 113.423 2.9657V12.4553H118.133V14.2822H105.551L105.487 12.4045ZM119.359 12.4045H121.23V12.6583H120.52V14.1807H120.068V12.6583H119.359V12.4045ZM121.488 12.4045H122.069L122.714 13.8254L123.359 12.4045H123.94V14.2314H123.553V12.8105L122.907 14.2314H122.585L121.939 12.8105V14.2314H121.552L121.488 12.4045Z" fill="#DCDCDC"/>
</svg>
